<svg xmlns="http://www.w3.org/2000/svg" width="336" height="166" viewBox="0 0 336 166" fill="none"><path d="M100.35 60.1204C100.35 65.7098 95.8192 70.2408 90.2298 70.2408C84.6405 70.2408 80.1094 65.7098 80.1094 60.1204C80.1094 54.5311 84.6405 50 90.2298 50C95.8192 50 100.35 54.5311 100.35 60.1204Z" fill="#C3BFF3"></path><path d="M84.7745 104.666C66.3651 104.666 51.4414 89.7432 51.4414 71.3339V55.334C69.8508 55.334 84.7753 70.2577 84.7753 88.6671L84.7745 104.666Z" fill="#C3BFF3"></path><path d="M121.44 66C103.031 66 88.1074 80.9237 88.1074 99.3331V115.333C106.517 115.333 121.44 100.409 121.44 81.9999V66Z" fill="#C3BFF3"></path><path d="M183.076 59.9443V100.077H175.027V73.9732L164.275 100.077H158.181L147.372 73.9732V100.077H139.322V59.9443H148.464L161.228 89.7845L173.992 59.9443H183.076Z" fill="#C3BFF3"></path><path d="M192.816 64.4293C191.398 64.4293 190.209 63.9885 189.251 63.1069C188.331 62.1869 187.871 61.0562 187.871 59.7146C187.871 58.3731 188.331 57.2615 189.251 56.3799C190.209 55.46 191.398 55 192.816 55C194.234 55 195.403 55.46 196.323 56.3799C197.281 57.2615 197.761 58.3731 197.761 59.7146C197.761 61.0562 197.281 62.1869 196.323 63.1069C195.403 63.9885 194.234 64.4293 192.816 64.4293ZM196.783 68.224V100.077H188.734V68.224H196.783Z" fill="#C3BFF3"></path><path d="M220.089 67.7637C223.884 67.7637 226.949 68.9711 229.288 71.3859C231.626 73.7624 232.796 77.0972 232.796 81.3902V100.077H224.745V82.4826C224.745 79.9528 224.114 78.0171 222.849 76.6755C221.584 75.2956 219.859 74.6057 217.674 74.6057C215.451 74.6057 213.688 75.2956 212.385 76.6755C211.12 78.0171 210.488 79.9528 210.488 82.4826V100.077H202.438V68.2237H210.488V72.1909C211.561 70.811 212.922 69.7377 214.57 68.9711C216.256 68.1662 218.096 67.7637 220.089 67.7637Z" fill="#C3BFF3"></path><path d="M247.521 74.8356V90.2444C247.521 91.3176 247.77 92.1034 248.269 92.6017C248.805 93.0617 249.687 93.2917 250.914 93.2917H254.651V100.077H249.591C242.807 100.077 239.414 96.7797 239.414 90.1869V74.8356H233.441V68.2236H239.414V60.3467H247.521V68.2236V74.8356Z" fill="#C3BFF3"></path><path d="M284.831 68.2236L265.11 115.14H256.543L263.442 99.2712L250.678 68.2236H259.705L267.927 90.4744L276.264 68.2236H284.831Z" fill="#C3BFF3"></path></svg>