<svg xmlns="http://www.w3.org/2000/svg" width="466" height="193" viewBox="0 0 466 193" fill="none"><path d="M107.969 68C107.969 58.0589 116.028 50 125.969 50C135.91 50 143.969 58.0589 143.969 68C143.969 77.9411 135.91 86 125.969 86C116.028 86 107.969 77.9411 107.969 68Z" fill="#C3BFF3"></path><path d="M127.059 93.9771V106.93C127.059 112.669 127.055 116.729 126.792 119.901C126.533 123.024 126.042 124.927 125.266 126.419C123.756 129.326 121.386 131.697 118.478 133.207C116.986 133.983 115.083 134.474 111.96 134.733C108.788 134.996 104.728 135 98.9892 135H87.0378C81.299 135 77.2394 134.996 74.0678 134.733C70.9441 134.474 69.0418 133.983 67.5493 133.207C64.6419 131.697 62.2714 129.326 60.7611 126.419C59.9858 124.927 59.4949 123.024 59.2354 119.901C58.9721 116.729 58.9688 112.669 58.9688 106.93V94.9793C58.9688 89.2404 58.9721 85.1808 59.2354 82.0092C59.4949 78.8855 59.9858 76.9832 60.7611 75.4907C62.2714 72.5833 64.6419 70.2127 67.5493 68.7024C69.0418 67.9271 70.9441 67.4362 74.0678 67.1768C77.2394 66.9134 81.2989 66.9102 87.0378 66.9102H99.9911C100.107 64.1061 100.667 61.4166 101.602 58.9102H86.8599C81.339 58.9101 76.9472 58.9101 73.4057 59.2042C69.7784 59.5054 66.6862 60.1358 63.8615 61.6031C59.4929 63.8724 55.9311 67.4344 53.6618 71.803C52.1945 74.6276 51.5641 77.7198 51.2629 81.3471C50.9688 84.8886 50.9688 89.2804 50.9688 94.8013V107.108C50.9688 112.629 50.9688 117.021 51.2629 120.563C51.5641 124.19 52.1945 127.282 53.6618 130.107C55.9311 134.475 59.4929 138.037 63.8615 140.307C66.6862 141.774 69.7784 142.404 73.4057 142.706C76.9472 143 81.3388 143 86.8597 143H99.1669C104.688 143 109.08 143 112.622 142.706C116.249 142.404 119.341 141.774 122.166 140.307C126.534 138.037 130.096 134.475 132.366 130.107C133.833 127.282 134.463 124.19 134.765 120.563C135.059 117.021 135.059 112.629 135.059 107.109V92.3665C132.552 93.3018 129.863 93.8615 127.059 93.9771Z" fill="#C3BFF3"></path><path d="M195.454 93.2908C195.454 95.7468 194.862 98.0492 193.678 100.199C192.538 102.348 190.718 104.08 188.218 105.396C185.762 106.711 182.648 107.369 178.876 107.369H171.179V125H161.969V79.0811H178.876C182.429 79.0811 185.455 79.6951 187.955 80.9231C190.454 82.1511 192.318 83.8395 193.546 85.9885C194.818 88.1375 195.454 90.5716 195.454 93.2908ZM178.481 99.9351C181.025 99.9351 182.911 99.365 184.139 98.2247C185.367 97.0405 185.981 95.3959 185.981 93.2908C185.981 88.8173 183.481 86.5806 178.481 86.5806H171.179V99.9351H178.481Z" fill="#C3BFF3"></path><path d="M208.571 94.2122C209.755 92.2824 211.29 90.7694 213.176 89.6729C215.105 88.5765 217.298 88.0283 219.754 88.0283V97.6988H217.32C214.426 97.6988 212.233 98.3786 210.742 99.7381C209.294 101.098 208.571 103.466 208.571 106.843V125H199.361V88.5546H208.571V94.2122Z" fill="#C3BFF3"></path><path d="M239.51 125.592C236.002 125.592 232.844 124.824 230.037 123.289C227.23 121.71 225.016 119.496 223.393 116.645C221.814 113.794 221.025 110.505 221.025 106.777C221.025 103.049 221.836 99.7605 223.459 96.9098C225.125 94.0591 227.384 91.8662 230.235 90.3312C233.085 88.7523 236.265 87.9629 239.774 87.9629C243.282 87.9629 246.462 88.7523 249.313 90.3312C252.163 91.8662 254.4 94.0591 256.023 96.9098C257.689 99.7605 258.523 103.049 258.523 106.777C258.523 110.505 257.667 113.794 255.957 116.645C254.29 119.496 252.01 121.71 249.115 123.289C246.264 124.824 243.063 125.592 239.51 125.592ZM239.51 117.566C241.177 117.566 242.734 117.171 244.181 116.382C245.672 115.549 246.857 114.321 247.734 112.698C248.611 111.075 249.049 109.102 249.049 106.777C249.049 103.312 248.128 100.659 246.286 98.8175C244.488 96.9317 242.273 95.9888 239.642 95.9888C237.011 95.9888 234.796 96.9317 232.998 98.8175C231.243 100.659 230.366 103.312 230.366 106.777C230.366 110.242 231.221 112.917 232.932 114.803C234.686 116.645 236.879 117.566 239.51 117.566Z" fill="#C3BFF3"></path><path d="M260.279 106.646C260.279 102.962 261.002 99.6942 262.45 96.8435C263.941 93.9928 265.958 91.7999 268.502 90.2649C271.046 88.7299 273.874 87.9624 276.988 87.9624C279.357 87.9624 281.615 88.4887 283.764 89.5413C285.913 90.55 287.624 91.9096 288.895 93.62V76.3184H298.237V125H288.895V119.605C287.755 121.403 286.154 122.851 284.093 123.947C282.032 125.044 279.642 125.592 276.922 125.592C273.852 125.592 271.046 124.802 268.502 123.224C265.958 121.645 263.941 119.43 262.45 116.579C261.002 113.685 260.279 110.373 260.279 106.646ZM288.961 106.777C288.961 104.54 288.523 102.633 287.646 101.054C286.768 99.431 285.584 98.2031 284.093 97.3698C282.602 96.4926 281.001 96.0541 279.291 96.0541C277.58 96.0541 276.001 96.4707 274.554 97.304C273.107 98.1373 271.923 99.3653 271.002 100.988C270.125 102.567 269.686 104.453 269.686 106.646C269.686 108.838 270.125 110.768 271.002 112.435C271.923 114.057 273.107 115.307 274.554 116.184C276.045 117.062 277.624 117.5 279.291 117.5C281.001 117.5 282.602 117.084 284.093 116.25C285.584 115.373 286.768 114.145 287.646 112.566C288.523 110.944 288.961 109.014 288.961 106.777Z" fill="#C3BFF3"></path><path d="M339.006 88.5547V125H329.73V120.395C328.546 121.974 326.989 123.224 325.059 124.145C323.173 125.022 321.112 125.46 318.875 125.46C316.025 125.46 313.503 124.868 311.31 123.684C309.117 122.456 307.385 120.68 306.113 118.355C304.885 115.987 304.271 113.18 304.271 109.935V88.5547H313.481V108.619C313.481 111.514 314.204 113.75 315.652 115.329C317.099 116.864 319.073 117.632 321.572 117.632C324.116 117.632 326.112 116.864 327.559 115.329C329.006 113.75 329.73 111.514 329.73 108.619V88.5547H339.006Z" fill="#C3BFF3"></path><path d="M343.094 106.777C343.094 103.005 343.862 99.7166 345.397 96.9098C346.932 94.0591 349.059 91.8662 351.778 90.3312C354.497 88.7523 357.611 87.9629 361.119 87.9629C365.637 87.9629 369.364 89.1032 372.303 91.3838C375.285 93.6205 377.281 96.7782 378.289 100.856H368.356C367.829 99.278 366.93 98.0501 365.659 97.1729C364.431 96.2519 362.896 95.7914 361.054 95.7914C358.422 95.7914 356.339 96.7563 354.804 98.686C353.269 100.571 352.501 103.269 352.501 106.777C352.501 110.242 353.269 112.939 354.804 114.869C356.339 116.755 358.422 117.698 361.054 117.698C364.781 117.698 367.215 116.031 368.356 112.698H378.289C377.281 116.645 375.285 119.781 372.303 122.105C369.321 124.43 365.593 125.592 361.119 125.592C357.611 125.592 354.497 124.824 351.778 123.289C349.059 121.71 346.932 119.518 345.397 116.711C343.862 113.86 343.094 110.549 343.094 106.777Z" fill="#C3BFF3"></path><path d="M393.129 96.1199V113.75C393.129 114.978 393.414 115.877 393.984 116.448C394.598 116.974 395.607 117.237 397.011 117.237H401.287V125H395.497C387.735 125 383.853 121.228 383.853 113.685V96.1199H379.512V88.5546H383.853V79.542H393.129V88.5546H401.287V96.1199H393.129Z" fill="#C3BFF3"></path><path d="M409.358 125.461C407.692 125.461 406.31 124.956 405.214 123.948C404.161 122.895 403.635 121.601 403.635 120.066C403.635 118.531 404.161 117.259 405.214 116.251C406.31 115.198 407.692 114.672 409.358 114.672C410.981 114.672 412.319 115.198 413.371 116.251C414.424 117.259 414.95 118.531 414.95 120.066C414.95 121.601 414.424 122.895 413.371 123.948C412.319 124.956 410.981 125.461 409.358 125.461Z" fill="#C3BFF3"></path></svg>