<svg xmlns="http://www.w3.org/2000/svg" width="498" height="209" viewBox="0 0 498 209" fill="none"><path d="M100.431 158.717H65.0547L100.431 105.221H135.807L100.431 158.717Z" fill="#C3BFF3"></path><path d="M87.4871 50H123.726L87.4871 105.221H51.248L87.4871 50Z" fill="#C3BFF3"></path><path d="M207.976 96.5384C207.976 99.8191 207.185 102.894 205.603 105.765C204.08 108.635 201.649 110.949 198.31 112.707C195.029 114.464 190.87 115.343 185.832 115.343H175.55V138.893H163.248V77.5576H185.832C190.577 77.5576 194.619 78.3778 197.958 80.0181C201.298 81.6584 203.787 83.9138 205.428 86.7844C207.127 89.655 207.976 92.9063 207.976 96.5384ZM185.304 105.413C188.702 105.413 191.221 104.652 192.862 103.129C194.502 101.547 195.322 99.3504 195.322 96.5384C195.322 90.563 191.983 87.5753 185.304 87.5753H175.55V105.413H185.304Z" fill="#C3BFF3"></path><path d="M225.499 97.768C227.081 95.1903 229.131 93.1692 231.65 91.7047C234.228 90.2401 237.157 89.5078 240.438 89.5078V102.426H237.186C233.32 102.426 230.391 103.334 228.399 105.15C226.466 106.966 225.499 110.129 225.499 114.64V138.893H213.197V90.2108H225.499V97.768Z" fill="#C3BFF3"></path><path d="M266.826 139.684C262.139 139.684 257.921 138.659 254.172 136.609C250.423 134.5 247.464 131.541 245.297 127.733C243.188 123.926 242.133 119.532 242.133 114.552C242.133 109.573 243.217 105.179 245.385 101.371C247.611 97.5629 250.628 94.6338 254.436 92.5834C258.244 90.4744 262.491 89.4199 267.178 89.4199C271.864 89.4199 276.111 90.4744 279.919 92.5834C283.727 94.6338 286.715 97.5629 288.883 101.371C291.109 105.179 292.222 109.573 292.222 114.552C292.222 119.532 291.079 123.926 288.795 127.733C286.568 131.541 283.522 134.5 279.656 136.609C275.848 138.659 271.571 139.684 266.826 139.684ZM266.826 128.964C269.052 128.964 271.132 128.436 273.065 127.382C275.057 126.269 276.639 124.629 277.81 122.461C278.982 120.293 279.568 117.657 279.568 114.552C279.568 109.924 278.338 106.38 275.877 103.919C273.475 101.4 270.517 100.141 267.002 100.141C263.487 100.141 260.528 101.4 258.127 103.919C255.783 106.38 254.612 109.924 254.612 114.552C254.612 119.18 255.754 122.754 258.039 125.273C260.382 127.733 263.311 128.964 266.826 128.964Z" fill="#C3BFF3"></path><path d="M310.032 129.139H323.244V138.893H297.73V70H310.032V129.139Z" fill="#C3BFF3"></path><path d="M332.787 84.4114C330.62 84.4114 328.803 83.7377 327.339 82.3903C325.933 80.9843 325.23 79.2561 325.23 77.2057C325.23 75.1553 325.933 73.4564 327.339 72.109C328.803 70.703 330.62 70 332.787 70C334.955 70 336.741 70.703 338.147 72.109C339.612 73.4564 340.344 75.1553 340.344 77.2057C340.344 79.2561 339.612 80.9843 338.147 82.3903C336.741 83.7377 334.955 84.4114 332.787 84.4114ZM338.85 90.2111V138.893H326.548V90.2111H338.85Z" fill="#C3BFF3"></path><path d="M374.468 89.5078C380.267 89.5078 384.954 91.3532 388.528 95.0439C392.101 98.676 393.888 103.773 393.888 110.334V138.893H381.585V112.004C381.585 108.137 380.619 105.179 378.686 103.129C376.752 101.02 374.116 99.9648 370.777 99.9648C367.379 99.9648 364.684 101.02 362.692 103.129C360.759 105.179 359.793 108.137 359.793 112.004V138.893H347.49V90.2108H359.793V96.2741C361.433 94.1651 363.513 92.5248 366.032 91.3532C368.609 90.1229 371.421 89.5078 374.468 89.5078Z" fill="#C3BFF3"></path><path d="M447.327 113.498C447.327 115.255 447.21 116.837 446.976 118.243H411.387C411.679 121.758 412.91 124.511 415.077 126.503C417.245 128.495 419.91 129.491 423.074 129.491C427.643 129.491 430.895 127.528 432.828 123.603H446.097C444.691 128.29 441.996 132.156 438.012 135.203C434.029 138.19 429.137 139.684 423.337 139.684C418.651 139.684 414.433 138.659 410.684 136.609C406.993 134.5 404.093 131.541 401.984 127.733C399.934 123.926 398.908 119.532 398.908 114.552C398.908 109.514 399.934 105.091 401.984 101.283C404.034 97.4751 406.905 94.5459 410.596 92.4955C414.286 90.4451 418.534 89.4199 423.337 89.4199C427.965 89.4199 432.096 90.4158 435.728 92.4076C439.418 94.3995 442.26 97.2407 444.252 100.932C446.302 104.564 447.327 108.753 447.327 113.498ZM434.585 109.983C434.527 106.819 433.384 104.3 431.158 102.426C428.932 100.492 426.208 99.5255 422.986 99.5255C419.94 99.5255 417.362 100.463 415.253 102.338C413.203 104.154 411.943 106.702 411.474 109.983H434.585Z" fill="#C3BFF3"></path></svg>