<svg xmlns="http://www.w3.org/2000/svg" width="447" height="151" viewBox="0 0 447 151" fill="none"><path d="M173.246 39.9883H187.657L171.953 107.575H146.608L130.904 39.9883H145.316L157.045 95.6481H161.517L173.246 39.9883Z" fill="#C3BFF3"></path><path d="M201.398 88.3917C201.464 91.4398 202.259 93.6595 203.783 95.051C205.373 96.3763 207.626 97.0389 210.542 97.0389C216.704 97.0389 222.204 96.8402 227.041 96.4426L229.824 96.1444L230.023 105.985C222.403 107.84 215.511 108.768 209.349 108.768C201.862 108.768 196.428 106.78 193.049 102.804C189.669 98.828 187.98 92.3674 187.98 83.4221C187.98 65.5977 195.302 56.6855 209.945 56.6855C224.39 56.6855 231.613 64.1731 231.613 79.1482L230.619 88.3917H201.398ZM218.493 78.2537C218.493 74.278 217.864 71.5282 216.605 70.0042C215.346 68.4139 213.126 67.6188 209.945 67.6188C206.831 67.6188 204.611 68.447 203.286 70.1035C202.027 71.6938 201.365 74.4105 201.298 78.2537H218.493Z" fill="#C3BFF3"></path><path d="M239.145 107.575V57.8783H252.364V63.146C257.93 59.8329 263.231 57.6794 268.267 56.6855V70.1035C262.899 71.23 258.294 72.3895 254.451 73.5822L252.463 74.278V107.575H239.145Z" fill="#C3BFF3"></path><path d="M301.67 69.2089H289.445V89.5843C289.445 91.5722 289.478 92.9968 289.545 93.8582C289.677 94.6534 290.042 95.3491 290.638 95.9455C291.301 96.5418 292.294 96.84 293.62 96.84L301.174 96.6412L301.77 107.277C297.33 108.271 293.951 108.768 291.632 108.768C285.668 108.768 281.593 107.442 279.407 104.792C277.22 102.075 276.127 97.105 276.127 89.8825V69.2089H270.262V57.8781H276.127V44.0625H289.445V57.8781H301.67V69.2089Z" fill="#C3BFF3"></path><path d="M308.354 107.575V57.8785H321.673V107.575H308.354ZM308.354 51.5174V38H321.673V51.5174H308.354Z" fill="#C3BFF3"></path><path d="M377.016 113.737C377.016 119.436 374.829 123.643 370.456 126.36C366.083 129.077 360.152 130.435 352.665 130.435C345.244 130.435 339.512 129.441 335.47 127.453C331.494 125.465 329.506 121.854 329.506 116.62C329.506 112.445 331.892 108.502 336.663 104.792C334.211 103.135 332.985 100.617 332.985 97.2382C332.985 95.9129 333.979 93.7263 335.967 90.6783L336.861 89.2868C332.356 86.0399 330.103 81.2691 330.103 74.9742C330.103 68.6131 331.991 64.0079 335.768 61.1587C339.611 58.3094 344.68 56.8848 350.975 56.8848C353.824 56.8848 356.641 57.2161 359.424 57.8787L361.014 58.1769L377.016 57.6799V68.3149L369.562 67.7186C371.019 69.9715 371.748 72.2244 371.748 74.4773C371.748 81.1034 370.059 85.6755 366.679 88.1934C363.3 90.7114 357.999 91.9704 350.776 91.9704C349.252 91.9704 347.894 91.8378 346.701 91.5728C346.039 93.2956 345.707 94.7202 345.707 95.8467C345.707 96.9069 346.271 97.6357 347.397 98.0333C348.523 98.4309 351.174 98.6628 355.348 98.7291C363.697 98.7953 369.396 99.9218 372.444 102.108C375.492 104.229 377.016 108.105 377.016 113.737ZM342.626 115.228C342.626 118.077 346.105 119.502 353.062 119.502C360.086 119.502 363.598 117.845 363.598 114.532C363.598 112.743 363.002 111.584 361.809 111.054C360.616 110.59 358.098 110.325 354.255 110.258L345.31 109.563C343.521 111.352 342.626 113.24 342.626 115.228ZM343.421 74.5767C343.421 79.4138 345.939 81.8323 350.975 81.8323C356.077 81.8323 358.628 79.4138 358.628 74.5767C358.628 69.6733 356.077 67.2216 350.975 67.2216C345.939 67.2216 343.421 69.6733 343.421 74.5767Z" fill="#C3BFF3"></path><path d="M385.781 63.5436C389.293 58.9715 395.157 56.6855 403.374 56.6855C411.59 56.6855 417.455 58.9715 420.966 63.5436C424.478 68.0494 426.234 74.4105 426.234 82.627C426.234 100.054 418.614 108.768 403.374 108.768C388.134 108.768 380.514 100.054 380.514 82.627C380.514 74.4105 382.27 68.0494 385.781 63.5436ZM396.019 93.8583C397.41 96.2437 399.862 97.4365 403.374 97.4365C406.886 97.4365 409.304 96.2437 410.63 93.8583C412.021 91.4729 412.717 87.7291 412.717 82.627C412.717 77.5248 412.021 73.8142 410.63 71.495C409.304 69.1758 406.886 68.0163 403.374 68.0163C399.862 68.0163 397.41 69.1758 396.019 71.495C394.694 73.8142 394.031 77.5248 394.031 82.627C394.031 87.7291 394.694 91.4729 396.019 93.8583Z" fill="#C3BFF3"></path><path fill-rule="evenodd" clip-rule="evenodd" d="M80.3875 36.1971C74.4356 33.7317 67.9963 32.6686 61.5679 33.0899C55.1394 33.5113 48.894 35.4058 43.3148 38.6269L37.6856 41.8769L31.1856 30.6186L36.8148 27.3686C44.1209 23.1505 52.2994 20.6695 60.7176 20.1178C69.1359 19.566 77.5682 20.9582 85.3624 24.1866C93.1565 27.4151 100.103 32.3932 105.666 38.736C111.228 45.0787 115.257 52.6161 117.441 60.765C119.624 68.9138 119.904 77.4558 118.258 85.73C116.612 94.0042 113.085 101.789 107.949 108.482C102.813 115.175 96.207 120.597 88.6407 124.328C81.0744 128.059 71.315 130 64.3148 130C57.3145 130 53.227 128.95 47.8591 126.727C42.6421 124.566 37.9019 121.399 33.9089 117.406C29.916 113.413 26.7487 108.672 24.5877 103.455C22.4268 98.2384 21.3145 92.6468 21.3145 87C21.3145 81.3532 22.4268 75.7616 24.5877 70.5446C26.7487 65.3276 29.916 60.5873 33.9089 56.5944C37.9019 52.6015 42.6421 49.4341 47.8591 47.2732C53.0761 45.1122 58.6677 44 64.3145 44C69.9614 44 75.5529 45.1122 80.7699 47.2732C85.9869 49.4341 90.7272 52.6015 94.7201 56.5944C98.713 60.5873 101.88 65.3276 104.041 70.5446C104.971 72.7887 105.706 75.102 106.243 77.4593C106.505 72.9843 106.05 68.4835 104.884 64.1296C103.216 57.9068 100.14 52.151 95.8921 47.3075C91.6444 42.4639 86.3394 38.6624 80.3875 36.1971ZM38.3519 102.031C39.0892 88.0555 50.655 76.9502 64.8145 76.9502C78.4267 76.9502 89.6418 87.2135 91.1436 100.424C91.4619 99.7877 91.7579 99.1396 92.0309 98.4805C93.5386 94.8407 94.3145 90.9397 94.3145 87C94.3145 83.0604 93.5386 79.1593 92.0309 75.5195C90.5233 71.8797 88.3135 68.5726 85.5277 65.7868C82.742 63.001 79.4348 60.7913 75.795 59.2836C72.1553 57.776 68.2542 57 64.3145 57C60.3749 57 56.4738 57.776 52.834 59.2836C49.1943 60.7913 45.8871 63.001 43.1013 65.7868C40.3156 68.5726 38.1058 71.8797 36.5981 75.5195C35.0905 79.1593 34.3145 83.0603 34.3145 87C34.3145 90.9397 35.0905 94.8407 36.5981 98.4805C37.105 99.7041 37.6911 100.89 38.3519 102.031ZM78.3145 103.45C78.3145 110.906 72.2704 116.95 64.8145 116.95C57.3587 116.95 51.3145 110.906 51.3145 103.45C51.3145 95.9944 57.3587 89.9502 64.8145 89.9502C72.2704 89.9502 78.3145 95.9944 78.3145 103.45Z" fill="#C3BFF3"></path></svg>