<svg xmlns="http://www.w3.org/2000/svg" width="655" height="191" viewBox="0 0 655 191" fill="none"><path fill-rule="evenodd" clip-rule="evenodd" d="M106.5 52.248C97.6634 52.248 90.5 59.4115 90.5 68.248C90.5 77.0846 97.6634 84.248 106.5 84.248C115.337 84.248 122.5 77.0846 122.5 68.248C122.5 59.4115 115.337 52.248 106.5 52.248ZM75.2164 83.375C91.8715 83.375 105.373 96.8766 105.373 113.532V138.249H90.3731V113.532C90.3731 111.758 90.0685 110.056 89.5086 108.474L67.4757 130.507L56.8691 119.9L78.1168 98.6522C77.178 98.4703 76.2083 98.375 75.2164 98.375H50.5V83.375H75.2164ZM138.157 83.375C121.502 83.375 108 96.8766 108 113.532V138.249H123V113.532C123 112.143 123.187 110.797 123.537 109.519L146.585 132.567L157.192 121.96L134.144 98.9119C135.422 98.5619 136.768 98.375 138.157 98.375H162.873V83.375H138.157Z" fill="#C3BFF3"></path><path d="M186.873 139.113V52.8945H211.291L237.471 126.778H239.359V52.8945H253.33V139.113H229.416L202.606 65.1035H200.844V139.113H186.873Z" fill="#C3BFF3"></path><path d="M309.302 127.785L312.826 127.408L313.078 137.603C303.512 139.533 295.037 140.498 287.653 140.498C278.339 140.498 271.626 137.938 267.515 132.82C263.487 127.701 261.473 119.52 261.473 108.276C261.473 85.956 270.577 74.7959 288.786 74.7959C306.407 74.7959 315.218 84.4036 315.218 103.619L314.337 113.436H275.318C275.402 118.639 276.535 122.457 278.717 124.89C280.898 127.324 284.968 128.54 290.926 128.54C296.883 128.54 303.009 128.289 309.302 127.785ZM301.75 102.864C301.75 96.6546 300.743 92.3332 298.729 89.8998C296.8 87.3825 293.485 86.1238 288.786 86.1238C284.087 86.1238 280.647 87.4244 278.465 90.0256C276.367 92.6269 275.276 96.9063 275.193 102.864H301.75Z" fill="#C3BFF3"></path><path d="M355.974 87.8858H338.604V115.576C338.604 120.695 338.982 124.093 339.737 125.771C340.492 127.449 342.422 128.289 345.527 128.289L355.848 127.911L356.477 138.861C350.855 139.952 346.576 140.498 343.639 140.498C336.507 140.498 331.598 138.861 328.913 135.589C326.311 132.316 325.011 126.149 325.011 117.087V87.8858H316.955V76.1803H325.011V57.9297H338.604V76.1803H355.974V87.8858Z" fill="#C3BFF3"></path><path d="M356.023 76.1797H369.491L379.434 127.408H381.951L393.909 77.4384H408.006L419.963 127.408H422.48L432.298 76.1797H445.891L432.549 139.113H410.775L400.957 95.9406L391.14 139.113H369.365L356.023 76.1797Z" fill="#C3BFF3"></path><path d="M454.649 82.9772C459.012 77.523 466.228 74.7959 476.298 74.7959C486.367 74.7959 493.541 77.523 497.821 82.9772C502.184 88.4313 504.366 96.6126 504.366 107.521C504.366 118.429 502.268 126.652 498.072 132.19C493.877 137.729 486.619 140.498 476.298 140.498C465.977 140.498 458.718 137.729 454.523 132.19C450.327 126.652 448.23 118.429 448.23 107.521C448.23 96.6126 450.369 88.4313 454.649 82.9772ZM464.97 123.883C466.9 127.24 470.676 128.918 476.298 128.918C481.92 128.918 485.696 127.24 487.626 123.883C489.556 120.527 490.521 115.031 490.521 107.395C490.521 99.7593 489.472 94.347 487.374 91.1584C485.36 87.9698 481.668 86.3755 476.298 86.3755C470.927 86.3755 467.193 87.9698 465.096 91.1584C463.082 94.347 462.075 99.7593 462.075 107.395C462.075 115.031 463.04 120.527 464.97 123.883Z" fill="#C3BFF3"></path><path d="M511.701 139.113V76.1804H525.295V83.7324C532.427 79.1173 539.56 76.1384 546.692 74.7959V88.5153C539.476 89.9417 533.308 91.7878 528.19 94.0534L525.421 95.1861V139.113H511.701Z" fill="#C3BFF3"></path><path d="M564.606 139.113H550.887V50H564.606V101.479L572.41 100.724L587.262 76.1801H602.618L584.493 105.633L603.625 139.113H588.143L572.788 112.555L564.606 113.436V139.113Z" fill="#C3BFF3"></path></svg>